<svg width="24" height="24" viewBox="0 0 24 24" fill="white" xmlns="http://www.w3.org/2000/svg">
<g id="tui-ic-service / close-ios">
<mask id="mask0_5247_569" style="mask-type:alpha" maskUnits="userSpaceOnUse" x="0" y="0" width="24" height="24">
<g id="Mask">
<path id="Mask_2" d="M12.25 10.3632L18.2212 4.39198C18.7435 3.86971 19.586 3.86911 20.1085 4.39155C20.6268 4.90993 20.6257 5.76111 20.108 6.27876L14.1368 12.25L20.108 18.2212C20.6303 18.7435 20.6309 19.586 20.1085 20.1085C19.5901 20.6268 18.7389 20.6257 18.2212 20.108L12.25 14.1368L6.27876 20.108C5.75649 20.6303 4.91398 20.6309 4.39155 20.1085C3.87317 19.5901 3.87433 18.7389 4.39198 18.2212L10.3632 12.25L4.39198 6.27876C3.86971 5.75649 3.86911 4.91398 4.39155 4.39155C4.90993 3.87317 5.76111 3.87433 6.27876 4.39198L12.25 10.3632Z" fill="white"/>
</g>
</mask>
<g mask="url(#mask0_5247_569)">
<rect id="Color" width="24" height="24" fill="white"/>
</g>
</g>
</svg>
